HIERARCHY
ROOT hip
{
  OFFSET 0 90.174 2.4664
  CHANNELS 6 Xposition Yposition Zposition Zrotation Xrotation Yrotation
  JOINT abdomen
  {
    OFFSET 0 -1.186 -1.5018
    CHANNELS 6 Xposition Yposition Zposition Zrotation Xrotation Yrotation
    JOINT abdomen2
    {
      OFFSET 0 9.964 0.2134
      CHANNELS 6 Xposition Yposition Zposition Zrotation Xrotation Yrotation
      JOINT chest
      {
        OFFSET 0 13.134 -3.2573
        CHANNELS 6 Xposition Yposition Zposition Zrotation Xrotation Yrotation
        JOINT neck
        {
          OFFSET 0 20.686 -1.6905
          CHANNELS 6 Xposition Yposition Zposition Zrotation Xrotation Yrotation
          JOINT head
          {
            OFFSET 0 7.238 -0.1237
            CHANNELS 6 Xposition Yposition Zposition Zrotation Xrotation Yrotation
            End Site
            {
              OFFSET 0 0 0
            }
          }
        }
        JOINT lCollar
        {
          OFFSET 1.7069 20.075 5.0056
          CHANNELS 6 Xposition Yposition Zposition Zrotation Xrotation Yrotation
          JOINT lShldr
          {
            OFFSET 13.6458 -0.047 -4.849
            CHANNELS 6 Xposition Yposition Zposition Zrotation Xrotation Yrotation
            JOINT lForeArm
            {
              OFFSET 28.3255 -0.9759 2.2888
              CHANNELS 6 Xposition Yposition Zposition Zrotation Xrotation Yrotation
              JOINT lHand
              {
                OFFSET 22.1583 -0.53 10.8316
                CHANNELS 6 Xposition Yposition Zposition Zrotation Xrotation Yrotation
                JOINT lThumb1
                {
                  OFFSET 0.786 0.112 2.5817
                  CHANNELS 6 Xposition Yposition Zposition Zrotation Xrotation Yrotation
                  JOINT lThumb2
                  {
                    OFFSET 0.3601 -0.878 4.2331
                    CHANNELS 6 Xposition Yposition Zposition Zrotation Xrotation Yrotation
                    JOINT lThumb2_End
                    {
                      OFFSET 1.8127 -1.216 2.2227
                      CHANNELS 6 Xposition Yposition Zposition Zrotation Xrotation Yrotation
                      End Site
                      {
                        OFFSET 0.0181 -0.0122 0.0222
                      }
                    }
                  }
                }
                JOINT lCarpal1
                {
                  OFFSET 0.9571 1.114 1.7695
                  CHANNELS 6 Xposition Yposition Zposition Zrotation Xrotation Yrotation
                  JOINT lIndex1
                  {
                    OFFSET 4.1246 0.487 4.1451
                    CHANNELS 6 Xposition Yposition Zposition Zrotation Xrotation Yrotation
                    JOINT lIndex2
                    {
                      OFFSET 3.4052 -1.454 2.7682
                      CHANNELS 6 Xposition Yposition Zposition Zrotation Xrotation Yrotation
                      JOINT lIndex2_End
                      {
                        OFFSET 1.4531 -1.795 1.2713
                        CHANNELS 6 Xposition Yposition Zposition Zrotation Xrotation Yrotation
                        End Site
                        {
                          OFFSET 0.0145 -0.0179 0.0127
                        }
                      }
                    }
                  }
                  JOINT lMid1
                  {
                    OFFSET 5.6954 0.21 2.1184
                    CHANNELS 6 Xposition Yposition Zposition Zrotation Xrotation Yrotation
                    JOINT lMid2
                    {
                      OFFSET 3.9766 -1.54 2.3863
                      CHANNELS 6 Xposition Yposition Zposition Zrotation Xrotation Yrotation
                      JOINT lMid2_End
                      {
                        OFFSET 1.4042 -1.926 1.125
                        CHANNELS 6 Xposition Yposition Zposition Zrotation Xrotation Yrotation
                        End Site
                        {
                          OFFSET 0.014 -0.0193 0.0113
                        }
                      }
                    }
                  }
                }
                JOINT lCarpal2
                {
                  OFFSET 2.0956 0.66 -0.3894
                  CHANNELS 6 Xposition Yposition Zposition Zrotation Xrotation Yrotation
                  JOINT lRing1
                  {
                    OFFSET 5.0395 -0.09 2.4971
                    CHANNELS 6 Xposition Yposition Zposition Zrotation Xrotation Yrotation
                    JOINT lRing2
                    {
                      OFFSET 3.7921 -1.552 1.4806
                      CHANNELS 6 Xposition Yposition Zposition Zrotation Xrotation Yrotation
                      JOINT lRing2_End
                      {
                        OFFSET 1.4655 -1.808 0.9609
                        CHANNELS 6 Xposition Yposition Zposition Zrotation Xrotation Yrotation
                        End Site
                        {
                          OFFSET 0.0147 -0.0181 0.0096
                        }
                      }
                    }
                  }
                  JOINT lPinky1
                  {
                    OFFSET 4.9141 -1.269 0.3591
                    CHANNELS 6 Xposition Yposition Zposition Zrotation Xrotation Yrotation
                    JOINT lPinky2
                    {
                      OFFSET 3.1477 -1.685 0.8462
                      CHANNELS 6 Xposition Yposition Zposition Zrotation Xrotation Yrotation
                      JOINT lPinky2_End
                      {
                        OFFSET 0.8055 -1.585 0.7955
                        CHANNELS 6 Xposition Yposition Zposition Zrotation Xrotation Yrotation
                        End Site
                        {
                          OFFSET 0.0081 -0.0158 0.008
                        }
                      }
                    }
                  }
                }
              }
            }
          }
        }
        JOINT rCollar
        {
          OFFSET -1.7069 20.075 5.0056
          CHANNELS 6 Xposition Yposition Zposition Zrotation Xrotation Yrotation
          JOINT rShldr
          {
            OFFSET -13.6458 -0.047 -4.849
            CHANNELS 6 Xposition Yposition Zposition Zrotation Xrotation Yrotation
            JOINT rForeArm
            {
              OFFSET -28.3255 -0.9759 2.2888
              CHANNELS 6 Xposition Yposition Zposition Zrotation Xrotation Yrotation
              JOINT rHand
              {
                OFFSET -22.1583 -0.53 10.8316
                CHANNELS 6 Xposition Yposition Zposition Zrotation Xrotation Yrotation
                JOINT rThumb1
                {
                  OFFSET -0.786 0.112 2.5817
                  CHANNELS 6 Xposition Yposition Zposition Zrotation Xrotation Yrotation
                  JOINT rThumb2
                  {
                    OFFSET -0.3601 -0.878 4.2331
                    CHANNELS 6 Xposition Yposition Zposition Zrotation Xrotation Yrotation
                    JOINT rThumb2_End
                    {
                      OFFSET -1.8127 -1.216 2.2227
                      CHANNELS 6 Xposition Yposition Zposition Zrotation Xrotation Yrotation
                      End Site
                      {
                        OFFSET -0.0181 -0.0122 0.0222
                      }
                    }
                  }
                }
                JOINT rCarpal1
                {
                  OFFSET -0.9571 1.114 1.7695
                  CHANNELS 6 Xposition Yposition Zposition Zrotation Xrotation Yrotation
                  JOINT rIndex1
                  {
                    OFFSET -4.1246 0.487 4.1451
                    CHANNELS 6 Xposition Yposition Zposition Zrotation Xrotation Yrotation
                    JOINT rIndex2
                    {
                      OFFSET -3.4052 -1.454 2.7682
                      CHANNELS 6 Xposition Yposition Zposition Zrotation Xrotation Yrotation
                      JOINT rIndex2_End
                      {
                        OFFSET -1.4531 -1.795 1.2713
                        CHANNELS 6 Xposition Yposition Zposition Zrotation Xrotation Yrotation
                        End Site
                        {
                          OFFSET -0.0145 -0.018 0.0127
                        }
                      }
                    }
                  }
                  JOINT rMid1
                  {
                    OFFSET -5.6954 0.21 2.1184
                    CHANNELS 6 Xposition Yposition Zposition Zrotation Xrotation Yrotation
                    JOINT rMid2
                    {
                      OFFSET -3.9766 -1.54 2.3863
                      CHANNELS 6 Xposition Yposition Zposition Zrotation Xrotation Yrotation
                      JOINT rMid2_End
                      {
                        OFFSET -1.4042 -1.926 1.125
                        CHANNELS 6 Xposition Yposition Zposition Zrotation Xrotation Yrotation
                        End Site
                        {
                          OFFSET -0.014 -0.0193 0.0113
                        }
                      }
                    }
                  }
                }
                JOINT rCarpal2
                {
                  OFFSET -2.0956 0.66 -0.3894
                  CHANNELS 6 Xposition Yposition Zposition Zrotation Xrotation Yrotation
                  JOINT rRing1
                  {
                    OFFSET -5.0395 -0.09 2.4971
                    CHANNELS 6 Xposition Yposition Zposition Zrotation Xrotation Yrotation
                    JOINT rRing2
                    {
                      OFFSET -3.7921 -1.552 1.4806
                      CHANNELS 6 Xposition Yposition Zposition Zrotation Xrotation Yrotation
                      JOINT rRing2_End
                      {
                        OFFSET -1.4655 -1.808 0.9609
                        CHANNELS 6 Xposition Yposition Zposition Zrotation Xrotation Yrotation
                        End Site
                        {
                          OFFSET -0.0147 -0.0181 0.0096
                        }
                      }
                    }
                  }
                  JOINT rPinky1
                  {
                    OFFSET -4.9141 -1.269 0.3592
                    CHANNELS 6 Xposition Yposition Zposition Zrotation Xrotation Yrotation
                    JOINT rPinky2
                    {
                      OFFSET -3.1477 -1.685 0.8462
                      CHANNELS 6 Xposition Yposition Zposition Zrotation Xrotation Yrotation
                      JOINT rPinky2_End
                      {
                        OFFSET -0.8055 -1.585 0.7955
                        CHANNELS 6 Xposition Yposition Zposition Zrotation Xrotation Yrotation
                        End Site
                        {
                          OFFSET -0.0081 -0.0158 0.008
                        }
                      }
                    }
                  }
                }
              }
            }
          }
        }
      }
    }
  }
  JOINT lThigh
  {
    OFFSET 8.367 -8.2066 0.5982
    CHANNELS 6 Xposition Yposition Zposition Zrotation Xrotation Yrotation
    JOINT lShin
    {
      OFFSET 2.1923 -43.463 -0.4932
      CHANNELS 6 Xposition Yposition Zposition Zrotation Xrotation Yrotation
      JOINT lFoot
      {
        OFFSET 0.7333 -45.8593 -2.6451
        CHANNELS 6 Xposition Yposition Zposition Zrotation Xrotation Yrotation
        End Site
        {
          OFFSET 2.6618 -4.2699 12.3931
        }
      }
    }
  }
  JOINT rThigh
  {
    OFFSET -8.367 -8.2066 0.5982
    CHANNELS 6 Xposition Yposition Zposition Zrotation Xrotation Yrotation
    JOINT rShin
    {
      OFFSET -2.1923 -43.463 -0.4931
      CHANNELS 6 Xposition Yposition Zposition Zrotation Xrotation Yrotation
      JOINT rFoot
      {
        OFFSET -0.7333 -45.8593 -2.6451
        CHANNELS 6 Xposition Yposition Zposition Zrotation Xrotation Yrotation
        End Site
        {
          OFFSET -2.6618 -4.2699 12.3931
        }
      }
    }
  }
}
MOTION
Frames:	4
Frame Time:	0.0333333
0 90.174 2.4664 0 0 -0 0 -1.186 -1.5018 0 0 -0 0 9.964 0.2134 0 0 -0 0 13.134 -3.2573 0 0 -0 0 20.686 -1.6905 0 0 -0 0 7.238 -0.1237 0 0 -0 1.7069 20.075 5.0056 0 0 -0 13.6458 -0.047 -4.849 1.66051 0.0835086 5.75766 28.3255 -0.9759 2.2888 -0.0175111 0.895433 15.7816 22.1583 -0.53 10.8316 7.95139e-016 -1.98785e-016 -0 0.786 0.112 2.5817 5.46658e-016 -3.97569e-016 -0 0.3601 -0.878 4.2331 5.96354e-016 0 -0 1.8127 -1.216 2.2227 3.97569e-016 1.98785e-016 9.54166e-015 0.9571 1.114 1.7695 1.49089e-016 -3.97569e-016 -0 4.1246 0.487 4.1451 6.4605e-016 0 3.18055e-015 3.4052 -1.454 2.7682 5.96354e-016 0 3.18055e-015 1.4531 -1.795 1.2713 8.94531e-016 -1.98785e-016 6.36111e-015 5.6954 0.21 2.1184 6.4605e-016 0 3.18055e-015 3.9766 -1.54 2.3863 5.96354e-016 0 3.18055e-015 1.4042 -1.926 1.125 8.94531e-016 -1.98785e-016 6.36111e-015 2.0956 0.66 -0.3894 1.49089e-016 -3.97569e-016 -0 5.0395 -0.09 2.4971 6.4605e-016 0 3.18055e-015 3.7921 -1.552 1.4806 5.96354e-016 0 3.18055e-015 1.4655 -1.808 0.9609 8.94531e-016 -1.98785e-016 6.36111e-015 4.9141 -1.269 0.3591 6.4605e-016 0 3.18055e-015 3.1477 -1.685 0.8462 5.96354e-016 0 3.18055e-015 0.8055 -1.585 0.7955 8.94531e-016 -1.98785e-016 6.36111e-015 -1.7069 20.075 5.0056 0 0 -0 -13.6458 -0.047 -4.849 -1.4496 0.0636048 -5.0245 -28.3255 -0.9759 2.2888 -1.74811 1.20616 -16.8394 -22.1583 -0.53 10.8316 -1.19271e-015 1.98785e-016 -3.18055e-015 -0.786 0.112 2.5817 -3.97569e-016 1.98785e-016 -3.18055e-015 -0.3601 -0.878 4.2331 -2.98177e-016 1.98785e-016 -3.18055e-015 -1.8127 -1.216 2.2227 -2.98177e-016 3.97569e-016 -0 -0.9571 1.114 1.7695 4.96962e-016 0 -6.36111e-015 -4.1246 0.487 4.1451 -9.93923e-017 3.97569e-016 -0 -3.4052 -1.454 2.7682 -8.94531e-016 5.96354e-016 -0 -1.4531 -1.795 1.2713 -3.97569e-016 3.97569e-016 -0 -5.6954 0.21 2.1184 -9.93923e-017 3.97569e-016 -0 -3.9766 -1.54 2.3863 -8.94531e-016 5.96354e-016 -0 -1.4042 -1.926 1.125 -3.97569e-016 3.97569e-016 -0 -2.0956 0.66 -0.3894 4.96962e-016 0 -6.36111e-015 -5.0395 -0.09 2.4971 -9.93923e-017 3.97569e-016 -0 -3.7921 -1.552 1.4806 -8.94531e-016 5.96354e-016 -0 -1.4655 -1.808 0.9609 -3.97569e-016 3.97569e-016 -0 -4.9141 -1.269 0.3592 -9.93923e-017 3.97569e-016 -0 -3.1477 -1.685 0.8462 -8.94531e-016 5.96354e-016 -0 -0.8055 -1.585 0.7955 -3.97569e-016 3.97569e-016 -0 8.367 -8.2066 0.5982 -4.66115 -1.03232 0.120763 2.1923 -43.463 -0.4932 0.00990601 1.55097 0.177175 0.7333 -45.8593 -2.6451 4.65196 -0.54114 -0.255042 -8.367 -8.2066 0.5982 4.66115 -1.03222 -0.120763 -2.1923 -43.463 -0.4931 -0.00990459 1.5509 -0.177176 -0.7333 -45.8593 -2.6451 -4.65196 -0.541171 0.255041 
1.4187 89.2508 -13.3737 0 0 -0 0 -1.186 -1.5018 -0.226655 7.17912 -0.37769 -1.11022e-016 9.964 0.2134 -0.410057 14.3595 -0.735261 3.88578e-016 13.134 -3.2573 -0.410058 14.3595 -0.73526 0 20.686 -1.6905 1.00692e-005 0.214877 4.42547e-007 0 7.238 -0.1237 -1.85251e-007 0.152121 1.2077e-007 1.7069 20.075 5.0056 -9.96492 -1.55189 -21.9399 13.6458 -0.047 -4.849 -53.3313 -5.57151 -6.36248 28.3255 -0.9759 2.2888 2.67006 5.78839 -27.7112 22.1583 -0.53 10.8316 9.8704 -9.26169 3.1684 0.786 0.112 2.5817 -1.79797e-007 6.85689e-007 4.7114e-007 0.3601 -0.878 4.2331 2.38542e-015 0 -3.18055e-015 1.8127 -1.216 2.2227 -1.79797e-007 6.85689e-007 4.7114e-007 0.9571 1.114 1.7695 -2.38542e-015 3.18055e-015 -0 4.1246 0.487 4.1451 -1.79797e-007 6.85689e-007 4.7114e-007 3.4052 -1.454 2.7682 7.95139e-016 -6.36111e-015 -0 1.4531 -1.795 1.2713 -1.79797e-007 6.85689e-007 4.7114e-007 5.6954 0.21 2.1184 -1.79797e-007 6.85689e-007 4.7114e-007 3.9766 -1.54 2.3863 7.95139e-016 -6.36111e-015 -0 1.4042 -1.926 1.125 -1.79797e-007 6.85689e-007 4.7114e-007 2.0956 0.66 -0.3894 -2.38542e-015 3.18055e-015 -0 5.0395 -0.09 2.4971 -1.79797e-007 6.85689e-007 4.7114e-007 3.7921 -1.552 1.4806 7.95139e-016 -6.36111e-015 -0 1.4655 -1.808 0.9609 -1.79797e-007 6.85689e-007 4.7114e-007 4.9141 -1.269 0.3591 -1.79797e-007 6.85689e-007 4.7114e-007 3.1477 -1.685 0.8462 7.95139e-016 -6.36111e-015 -0 0.8055 -1.585 0.7955 -1.79797e-007 6.85689e-007 4.7114e-007 -1.7069 20.075 5.0056 9.96143 -1.55286 21.9363 -13.6458 -0.047 -4.849 53.5386 -5.54862 7.11304 -28.3255 -0.9759 2.2888 -4.1642 4.96854 26.7455 -22.1583 -0.53 10.8316 -9.84029 -9.23376 -3.40612 -0.786 0.112 2.5817 2.34289e-007 -1.7659e-006 -2.84413e-006 -0.3601 -0.878 4.2331 -9.89399e-006 -3.64097e-006 -9.4899e-007 -1.8127 -1.216 2.2227 -1.58215e-007 -7.11032e-007 4.41475e-007 -0.9571 1.114 1.7695 -8.82781e-032 -3.18055e-015 -1.59028e-015 -4.1246 0.487 4.1451 2.34289e-007 -1.7659e-006 -2.84413e-006 -3.4052 -1.454 2.7682 -9.89399e-006 -3.64097e-006 -9.4899e-007 -1.4531 -1.795 1.2713 -1.58215e-007 -7.11032e-007 4.41475e-007 -5.6954 0.21 2.1184 2.34289e-007 -1.7659e-006 -2.84413e-006 -3.9766 -1.54 2.3863 -9.89399e-006 -3.64097e-006 -9.4899e-007 -1.4042 -1.926 1.125 -1.58215e-007 -7.11032e-007 4.41475e-007 -2.0956 0.66 -0.3894 -8.82781e-032 -3.18055e-015 -1.59028e-015 -5.0395 -0.09 2.4971 2.34289e-007 -1.7659e-006 -2.84413e-006 -3.7921 -1.552 1.4806 -9.89399e-006 -3.64097e-006 -9.4899e-007 -1.4655 -1.808 0.9609 -1.58215e-007 -7.11032e-007 4.41475e-007 -4.9141 -1.269 0.3592 2.34289e-007 -1.7659e-006 -2.84413e-006 -3.1477 -1.685 0.8462 -9.89399e-006 -3.64097e-006 -9.4899e-007 -0.8055 -1.585 0.7955 -1.58215e-007 -7.11032e-007 4.41475e-007 8.367 -8.2066 0.5982 5.55281 3.00685 7.80286 2.1923 -43.463 -0.4932 -1.76609 23.2528 1.00623 0.7333 -45.8593 -2.6451 -10.0252 -11.4099 7.42861 -8.367 -8.2066 0.5982 -1.89409 2.94539 -3.50823 -2.1923 -43.463 -0.4931 1.51176 23.5498 -0.754298 -0.7333 -45.8593 -2.6451 7.68772 -12.1713 -13.0564 
1.41769 89.2096 -13.7998 0 1.27052 -0 0 -1.186 -1.5018 -0.225347 6.72984 -0.379378 -1.11022e-016 9.964 0.2134 -0.409744 13.461 -0.73963 -5.55112e-017 13.134 -3.2573 -0.409744 13.461 -0.739629 -4.44089e-016 20.686 -1.6905 2.34274e-005 0.274169 -2.26973e-006 -4.44089e-016 7.238 -0.1237 3.50442e-007 0.193833 -3.1519e-007 1.7069 20.075 5.0056 -9.9016 -0.775671 -21.4568 13.6458 -0.047 -4.849 -53.578 -5.49739 -6.36199 28.3255 -0.9759 2.2888 2.67006 5.78838 -27.7112 22.1583 -0.53 10.8316 9.90322 -8.95104 3.20181 0.786 0.112 2.5817 -1.79146e-007 6.86315e-007 4.70375e-007 0.3601 -0.878 4.2331 -1.79146e-007 6.86315e-007 4.70375e-007 1.8127 -1.216 2.2227 1.59028e-015 -6.36111e-015 -0 0.9571 1.114 1.7695 -1.59028e-015 9.54166e-015 -4.77083e-015 4.1246 0.487 4.1451 -1.79146e-007 6.86315e-007 4.70375e-007 3.4052 -1.454 2.7682 -1.79146e-007 6.86315e-007 4.70375e-007 1.4531 -1.795 1.2713 1.59028e-015 -3.18055e-015 -3.18055e-015 5.6954 0.21 2.1184 -1.79146e-007 6.86315e-007 4.70375e-007 3.9766 -1.54 2.3863 -1.79146e-007 6.86315e-007 4.70375e-007 1.4042 -1.926 1.125 1.59028e-015 -3.18055e-015 -3.18055e-015 2.0956 0.66 -0.3894 -1.59028e-015 9.54166e-015 -4.77083e-015 5.0395 -0.09 2.4971 -1.79146e-007 6.86315e-007 4.70375e-007 3.7921 -1.552 1.4806 -1.79146e-007 6.86315e-007 4.70375e-007 1.4655 -1.808 0.9609 1.59028e-015 -3.18055e-015 -3.18055e-015 4.9141 -1.269 0.3591 -1.79146e-007 6.86315e-007 4.70375e-007 3.1477 -1.685 0.8462 -1.79146e-007 6.86315e-007 4.70375e-007 0.8055 -1.585 0.7955 1.59028e-015 -3.18055e-015 -3.18055e-015 -1.7069 20.075 5.0056 9.86653 -0.785629 21.4249 -13.6458 -0.047 -4.849 53.7783 -5.47445 7.11262 -28.3255 -0.9759 2.2888 -4.16415 4.96854 26.7455 -22.1583 -0.53 10.8316 -9.85227 -8.91134 -3.41934 -0.786 0.112 2.5817 -1.04046e-006 -7.86061e-007 -2.92713e-006 -0.3601 -0.878 4.2331 -2.36541e-006 -5.69639e-007 2.4347e-007 -1.8127 -1.216 2.2227 -1.57536e-007 -7.11686e-007 4.40564e-007 -0.9571 1.114 1.7695 1.59028e-015 0 -3.18055e-015 -4.1246 0.487 4.1451 -1.04046e-006 -7.86061e-007 -2.92713e-006 -3.4052 -1.454 2.7682 -2.36541e-006 -5.69639e-007 2.4347e-007 -1.4531 -1.795 1.2713 -1.57536e-007 -7.11686e-007 4.40564e-007 -5.6954 0.21 2.1184 -1.04046e-006 -7.86061e-007 -2.92713e-006 -3.9766 -1.54 2.3863 -2.36541e-006 -5.69639e-007 2.4347e-007 -1.4042 -1.926 1.125 -1.57536e-007 -7.11686e-007 4.40564e-007 -2.0956 0.66 -0.3894 1.59028e-015 0 -3.18055e-015 -5.0395 -0.09 2.4971 -1.04046e-006 -7.86061e-007 -2.92713e-006 -3.7921 -1.552 1.4806 -2.36541e-006 -5.69639e-007 2.4347e-007 -1.4655 -1.808 0.9609 -1.57536e-007 -7.11686e-007 4.40564e-007 -4.9141 -1.269 0.3592 -1.04046e-006 -7.86061e-007 -2.92713e-006 -3.1477 -1.685 0.8462 -2.36541e-006 -5.69639e-007 2.4347e-007 -0.8055 -1.585 0.7955 -1.57536e-007 -7.11686e-007 4.40564e-007 8.367 -8.2066 0.5982 5.53538 0.965148 7.8637 2.1923 -43.463 -0.4932 -1.61048 24.019 0.978043 0.7333 -45.8593 -2.6451 -10.0196 -11.3678 7.43312 -8.367 -8.2066 0.5982 -1.83717 0.899946 -3.53061 -2.1923 -43.463 -0.4931 1.33706 24.3203 -0.715413 -0.7333 -45.8593 -2.6451 7.68197 -12.1296 -13.0599 
1.41676 89.1661 -14.2278 0 2.54358 -0 0 -1.186 -1.5018 -0.223941 6.27457 -0.380933 0 9.964 0.2134 -0.409332 12.5505 -0.743773 -3.33067e-016 13.134 -3.2573 -0.409332 12.5505 -0.743773 -4.44089e-016 20.686 -1.6905 3.61111e-006 0.334107 4.9474e-007 0 7.238 -0.1237 1.54344e-008 0.235534 4.80878e-008 1.7069 20.075 5.0056 -9.84477 0.00182188 -20.9741 13.6458 -0.047 -4.849 -53.8246 -5.42326 -6.36119 28.3255 -0.9759 2.2888 2.67007 5.7884 -27.7112 22.1583 -0.53 10.8316 9.93579 -8.64035 3.235 0.786 0.112 2.5817 -3.18055e-015 9.54166e-015 -0 0.3601 -0.878 4.2331 -2.38542e-015 3.18055e-015 3.18055e-015 1.8127 -1.216 2.2227 -1.78575e-007 6.86945e-007 4.69597e-007 0.9571 1.114 1.7695 -3.18055e-015 9.54166e-015 -1.59028e-015 4.1246 0.487 4.1451 -3.97569e-015 3.18055e-015 6.36111e-015 3.4052 -1.454 2.7682 -8.82781e-032 3.18055e-015 1.59028e-015 1.4531 -1.795 1.2713 -1.78575e-007 6.86945e-007 4.69597e-007 5.6954 0.21 2.1184 -3.97569e-015 3.18055e-015 6.36111e-015 3.9766 -1.54 2.3863 -8.82781e-032 3.18055e-015 1.59028e-015 1.4042 -1.926 1.125 -1.78575e-007 6.86945e-007 4.69597e-007 2.0956 0.66 -0.3894 -3.18055e-015 9.54166e-015 -1.59028e-015 5.0395 -0.09 2.4971 -3.97569e-015 3.18055e-015 6.36111e-015 3.7921 -1.552 1.4806 -8.82781e-032 3.18055e-015 1.59028e-015 1.4655 -1.808 0.9609 -1.78575e-007 6.86945e-007 4.69597e-007 4.9141 -1.269 0.3591 -3.97569e-015 3.18055e-015 6.36111e-015 3.1477 -1.685 0.8462 -8.82781e-032 3.18055e-015 1.59028e-015 0.8055 -1.585 0.7955 -1.78575e-007 6.86945e-007 4.69597e-007 -1.7069 20.075 5.0056 9.77841 -0.0168013 20.9143 -13.6458 -0.047 -4.849 54.0181 -5.40026 7.1119 -28.3255 -0.9759 2.2888 -4.16414 4.96854 26.7455 -22.1583 -0.53 10.8316 -9.86415 -8.58887 -3.43249 -0.786 0.112 2.5817 -1.30598e-006 -2.82899e-006 -8.2112e-006 -0.3601 -0.878 4.2331 -1.85198e-006 -2.87954e-007 2.68171e-006 -1.8127 -1.216 2.2227 -6.00433e-006 -5.82341e-006 -3.97943e-006 -0.9571 1.114 1.7695 -3.18055e-015 3.18055e-015 -1.59028e-015 -4.1246 0.487 4.1451 -1.30598e-006 -2.82899e-006 -8.2112e-006 -3.4052 -1.454 2.7682 -1.85198e-006 -2.87954e-007 2.68171e-006 -1.4531 -1.795 1.2713 -6.00433e-006 -5.82341e-006 -3.97943e-006 -5.6954 0.21 2.1184 -1.30598e-006 -2.82899e-006 -8.2112e-006 -3.9766 -1.54 2.3863 -1.85198e-006 -2.87954e-007 2.68171e-006 -1.4042 -1.926 1.125 -6.00433e-006 -5.82341e-006 -3.97943e-006 -2.0956 0.66 -0.3894 -3.18055e-015 3.18055e-015 -1.59028e-015 -5.0395 -0.09 2.4971 -1.30598e-006 -2.82899e-006 -8.2112e-006 -3.7921 -1.552 1.4806 -1.85198e-006 -2.87954e-007 2.68171e-006 -1.4655 -1.808 0.9609 -6.00433e-006 -5.82341e-006 -3.97943e-006 -4.9141 -1.269 0.3592 -1.30598e-006 -2.82899e-006 -8.2112e-006 -3.1477 -1.685 0.8462 -1.85198e-006 -2.87954e-007 2.68171e-006 -0.8055 -1.585 0.7955 -6.00433e-006 -5.82341e-006 -3.97943e-006 8.367 -8.2066 0.5982 5.51788 -1.08831 7.92422 2.1923 -43.463 -0.4932 -1.45038 24.7865 0.946506 0.7333 -45.8593 -2.6451 -10.0151 -11.3258 7.43757 -8.367 -8.2066 0.5982 -1.77866 -1.15612 -3.55109 -2.1923 -43.463 -0.4931 1.15769 25.0913 -0.672663 -0.7333 -45.8593 -2.6451 7.67742 -12.0881 -13.0633 
